<svg version="1.1" xmlns="http://www.w3.org/2000/svg" viewBox="0 0 293.33333333333394 362.2222222222222"
     width="100%" height="100%" filter="invert(100%) hue-rotate(180deg)">
    <!-- svg-source:excalidraw -->

    <defs>
        <style>
            @font-face {
            font-family: "Virgil";
            src: url("https://excalidraw.com/Virgil.woff2");
            }
            @font-face {
            font-family: "Cascadia";
            src: url("https://excalidraw.com/Cascadia.woff2");
            }
        </style>
    </defs>
    <rect x="0" y="0" width="293.33333333333394" height="362.2222222222222" fill="#ffffff"></rect>
    <g stroke-linecap="round" transform="translate(10 10) rotate(0 136.66666666666697 171.1111111111111)">
        <path d="M0 0 C0 0, 0 0, 0 0 M0 0 C0 0, 0 0, 0 0 M-2.8 11.4 C-0.11 11.91, 7.33 3.32, 10.25 2.41 M-0.5 13.08 C3.72 7.14, 7.5 5.29, 11.47 0.98 M-3.46 24.35 C12.26 12.17, 17.47 2.66, 23.63 2.7 M1 26.04 C9.8 13.85, 16.23 5.54, 19.47 1.1 M-0.06 38.55 C9.25 27.35, 13.19 23.84, 31.26 0.28 M-1.88 38.81 C11.39 25.83, 20.11 14.95, 33.01 -2.05 M3.54 48.22 C11.65 33.67, 25.68 15.92, 41.8 -0.27 M0.73 47.39 C9.03 37.4, 18.23 27.07, 41.31 0.12 M3.31 60.16 C16.81 43.57, 29.52 25.97, 49.59 -1.36 M0.25 62.8 C20.18 36.25, 41.64 15.06, 52.46 1.24 M1.47 70.12 C11.88 55.33, 31.26 33.63, 63.05 -0.2 M1.84 74.59 C20.3 48.4, 38.29 28.71, 63.4 -1.54 M2.31 83.01 C22.82 52.89, 50.18 30.17, 77.17 -1.35 M1.48 85.87 C18.06 69.08, 32.48 51.99, 73.64 -1.27 M0.04 101.14 C19.12 74.35, 39.79 59.01, 86.02 2.83 M-0.89 96.27 C24.22 64.59, 52.25 35.79, 87.02 1.05 M1.92 108.77 C21.42 79.54, 44.82 53.6, 95.24 3.63 M-1.05 109.22 C36.02 69.79, 69.62 32.66, 97.5 -1.32 M-3.19 120.08 C31.57 83.62, 66.33 40.18, 102.57 3.51 M-0.67 122.67 C35.02 81.08, 73.86 40.19, 106.83 1.44 M2.32 131.64 C30.36 99.94, 61.15 61.42, 117.66 -3.62 M1.1 132.4 C47.25 82.49, 91.18 30.06, 117.73 -1.3 M-3.38 142.73 C41.91 95.02, 86.95 46.69, 129.19 0.03 M0.68 146.93 C40.69 97.84, 81.53 53.78, 126.2 -1.4 M2.03 159.46 C42.52 102.61, 93.22 46.47, 137.49 0.21 M-0.77 158.63 C37.57 117, 72.05 71.89, 139.15 -1.02 M-2.09 171.56 C44.24 117.64, 92.15 64.76, 145.94 -0.77 M-1.12 170.8 C54.48 107.75, 111.36 44.28, 147.88 1.59 M-2.79 183.94 C51.97 123.27, 104.29 68.49, 155.7 2.88 M0.3 184.35 C40.29 134.84, 79.32 92.49, 158.82 1.59 M0.83 194.15 C60.12 126.32, 115.15 62.48, 170.42 -2.95 M0.31 194.49 C53.57 132.3, 109.27 67.25, 169.78 -0.53 M2.57 209.46 C51.67 145.2, 104.36 84.73, 180.52 -2.81 M-0.48 206.39 C65.81 134.83, 132.26 59.77, 178.92 -1.01 M-0.95 218.74 C79.51 131.86, 155.1 45.98, 192.7 -1.92 M-0.64 221.03 C68.69 142.08, 136.87 61.12, 192.01 -0.65 M0.91 229.81 C47.72 184.42, 90.61 133.26, 201.63 2.91 M-0.04 231.69 C58.98 164.99, 116.4 97.39, 202.18 0.39 M1.99 245.02 C69.52 162.55, 143.97 81.28, 211.85 1.98 M0.71 244.92 C74.62 154.97, 151.69 65.24, 212.77 1.33 M-1.73 256.41 C67.1 179.42, 137.03 101.88, 222.95 -1.17 M1.23 255.69 C82.98 160.22, 166.14 63.84, 223.39 -0.35 M0.23 266.01 C64.01 197.51, 126.56 126.88, 233.31 -0.16 M-0.69 266.97 C91.68 159.21, 186.03 53.62, 234.22 0.65 M-2.32 281.97 C67.31 202.65, 133.99 122.01, 243.18 0.96 M-0.88 280.52 C80.81 189.13, 161.41 96.25, 244.56 0.06 M1.85 292.86 C98.08 183.57, 192.66 72.76, 252.24 1.21 M-0.68 293.18 C95.05 180.55, 189.75 70.82, 254.02 -0.97 M-0.36 304.76 C77.6 218.11, 156.66 130.28, 266.69 -0.4 M0.55 305.46 C95.2 196.59, 188.18 88.52, 265.7 -0.18 M1.94 315.48 C84.01 214.48, 170.53 117.3, 273.27 2.83 M-0.34 317.33 C66.71 237.33, 134.38 161.6, 274.32 1.78 M-0.68 326.8 C108.08 210.48, 214.18 90.53, 272.83 15.46 M1.19 327.96 C71.44 251.89, 141.19 171.44, 273.59 13.63 M-0.57 342.72 C107.77 217.77, 216.26 91.7, 274.83 23.75 M0.03 341.93 C101.88 222.82, 205.05 103.85, 273.8 24.95 M7.65 348.62 C72.14 262.56, 142.54 183.65, 274 36.1 M6.19 347.85 C78.96 266.3, 150.75 181.71, 274.46 37.66 M16.58 345.41 C74 283.39, 127.19 217, 274.84 48.76 M15.57 347.71 C113.27 233.04, 213.3 117.92, 274.5 50.23 M28.4 349.27 C103.15 267.93, 171.5 185.62, 276.26 61.1 M26.42 346.07 C96.18 269.32, 161.02 193.21, 274.76 61.53 M37.67 348.38 C89.08 285.54, 144.66 226.75, 275.89 75.1 M38.74 345.78 C106.96 263.23, 178.37 184.19, 274.71 74.13 M47.9 347.29 C119.06 263.45, 194.24 182.21, 273.76 87.49 M47.44 347.61 C127.38 253.21, 208.02 160.95, 274.22 85.93 M59.51 346.41 C135.88 257.72, 213.46 165.83, 273.49 98.46 M58.27 346.5 C138.57 254.07, 220.95 156.16, 275.19 98.02 M69.42 346.11 C120.55 286.44, 172.88 225.58, 273.37 110.92 M68.58 348.83 C125.34 286.26, 179.82 222.26, 273.17 110.16 M81.16 348.35 C119.2 300.95, 158.23 252.16, 277.21 124.51 M80.11 348.8 C152.27 268.44, 219.08 189.62, 274.91 121.92 M88.15 350 C139.75 286.47, 194.18 224.47, 276.16 136.45 M89.06 348.83 C157.86 268.21, 226.1 189.2, 273.13 136.3 M99.95 345.64 C141.27 301.32, 183.82 254.35, 272.01 146.79 M101.4 347.99 C157.71 282.27, 216.58 214.74, 273.5 145.99 M109.55 349.69 C154.33 304.71, 193.63 253.57, 275.48 162.67 M109.91 346.46 C154.89 300.92, 196.91 250.1, 274.85 160.48 M121.23 348.73 C176.44 284, 233.16 218.46, 277.04 169.47 M123.78 347.7 C165.23 296.45, 207.05 247.64, 275.43 171.07 M135.62 348.55 C168.36 299.93, 208.38 260.31, 271 182.86 M131.02 346.88 C182.3 287.55, 233.02 225.84, 273.63 184.97 M145.77 344.68 C168.23 310.99, 200.33 283.02, 277.73 197.07 M143.37 346.04 C192.52 288.74, 244.6 229.51, 276.2 195.29 M155.17 346.05 C199.97 302.51, 237.91 250.96, 273.09 211.12 M153.48 346 C194.81 302.74, 235.75 253.7, 274.33 207.04 M168.11 350.47 C196.11 310.13, 223.74 275.91, 277.4 217.35 M164.27 348.92 C198.95 307.21, 232.59 269.79, 276.81 219.54 M178.62 344.58 C200.94 315.17, 231.62 275.29, 277.83 231.1 M176.23 347.48 C204.28 314.79, 234.84 283.5, 273.7 231.62 M182.04 349.01 C203.66 321.8, 223.05 301.8, 273.23 242.51 M184.97 347.82 C207.87 317.86, 233.13 291.01, 275.68 245.49 M195.78 349.52 C220.29 323.19, 239.23 298.29, 275.06 256.66 M194.91 347.59 C222.42 317.26, 247.13 290.34, 276.04 257.43 M207.84 348.58 C226.53 325.43, 249.27 296.78, 274.51 270.05 M209.08 346.23 C231.15 318.03, 252.42 292.72, 275.07 268.98 M221.28 344.8 C234.13 329.42, 250.9 315.02, 278.35 282.85 M218.82 347.25 C238.51 320.52, 262.6 298.17, 273.15 281.99 M226.75 344.49 C234.53 334.46, 244.49 327.61, 272.8 295.16 M229.56 348.41 C243.01 333.59, 253.79 316.03, 275.82 293.58 M238.99 349.11 C252.44 337.53, 261.83 317.73, 270.57 307.49 M238.59 348.04 C248.04 335.58, 259.29 326.02, 274.21 307.41 M253.29 350.79 C253.56 339.5, 259.7 330.58, 271.54 320.77 M248.76 347.23 C256.05 338.67, 262.38 333.48, 274.78 316.46 M258.05 343.87 C268.45 343.15, 267.94 338.15, 277.78 328.87 M262.27 348.14 C264.57 342.94, 266.53 341.41, 275.76 330.21"
              stroke="#fff" stroke-width="1" fill="none"></path>
        <path d="M0.41 -1.83 C101.49 2.62, 201.53 0.97, 272.24 -0.35 M0.36 -1.49 C72.62 0.91, 146.54 -0.03, 274.74 -0.22 M272.75 0.27 C269.17 135.78, 270.07 267.56, 271.87 341.69 M272.15 1.12 C277.25 83.38, 278.15 167.74, 273.2 342.24 M275.34 340.77 C171.61 339.47, 66.37 338.04, -1.92 341.96 M274.26 341.69 C164.83 340.75, 58.34 340.84, -0.34 342.43 M-2.25 339.79 C-3.3 267.53, -1.7 190.84, 1.44 0.67 M-0.2 342.71 C2.14 272.76, 0.43 203.47, 0.59 0.04"
              stroke="#000" stroke-width="2" fill="none"></path>
    </g>
    <g stroke-linecap="round"
       transform="translate(51.11111111111222 37.77777777777783) rotate(0 93.33333333333303 93.33333333333326)">
        <path d="M24.64 30.69 C24.64 30.69, 24.64 30.69, 24.64 30.69 M24.64 30.69 C24.64 30.69, 24.64 30.69, 24.64 30.69 M10.87 60.59 C17.83 53.28, 26.76 39.78, 42.31 23.53 M9.4 63.1 C20.3 49.79, 32.62 33.13, 42.14 24.57 M4.92 77.44 C24.45 52.23, 44.21 30.46, 57.72 11.95 M5.41 76.06 C22.67 56.67, 39.94 36.57, 60.32 13.74 M7.62 88.83 C24.22 65.5, 38.58 44.7, 78.21 5.28 M4.36 88.36 C30.5 60.25, 52.5 34.32, 74.46 10.21 M1.43 104.02 C34.19 67.38, 62.05 36.06, 87.25 8.79 M4.92 101.18 C26.74 73.9, 52.55 42.43, 87.55 5.99 M2.98 108.9 C34.57 81, 68.95 42.45, 95 3.94 M8.45 112.96 C29.98 85.45, 52.14 55.88, 97.05 6.63 M10.44 120.09 C48.37 83.01, 81.13 41.22, 112.28 7.35 M7.61 120.24 C39.84 89.07, 73.67 53.52, 110.09 4.99 M11.81 126.86 C46.24 87.39, 79.73 55.27, 121.71 3.88 M11.88 130.3 C45.22 95.51, 80.52 54.9, 119.84 8.99 M14.85 142.13 C61.09 88.89, 100.93 43.47, 129.35 12.74 M14.78 138.97 C40.88 112.92, 63.52 86.09, 126.43 10.53 M21.54 147.76 C67.31 91.69, 111.24 38.09, 138.08 12.32 M21.54 146.63 C59.28 101.68, 99.28 54.93, 135.58 13.1 M21.99 149.05 C50.43 124.59, 77.88 98.5, 143.33 15.45 M24.29 151.43 C65.69 105.03, 105.22 55.67, 143.55 17.7 M26.2 158.44 C72.11 105.61, 114.27 59.06, 148.98 22.14 M31.04 159.84 C60.13 121.4, 95.37 85.25, 150.32 22.38 M35.22 168.56 C86.21 113.88, 127.68 55.64, 159.16 27.32 M34.14 166.33 C69.85 129.51, 100.78 92.56, 156.6 24.74 M40.35 168.68 C77.97 133.85, 108.24 93.85, 159.37 31.57 M42.66 168.67 C87.4 117.63, 131.64 65.15, 162.27 31.41 M51.67 173.3 C95.67 121.94, 143.8 61.76, 168.36 37.39 M48.24 175.19 C92.34 123.57, 133.93 75.63, 167.42 37.05 M54.5 176.56 C89.74 132.03, 129.3 85.88, 175.97 39.74 M54.74 177.99 C86.63 145.5, 112.36 111.92, 175.55 41.61 M67.21 182.75 C108.72 137.93, 149.43 84.09, 179.67 53.48 M65.37 182.23 C89.99 149.4, 118.59 117.6, 175.23 48.61 M73.12 186.64 C102.86 150.38, 130 121.69, 180.24 60.64 M71.73 185.09 C94.19 157.17, 122.21 127.59, 181.15 59.07 M78.85 186.08 C111.13 152.45, 137.97 119.63, 186.43 70.9 M81.55 187.27 C114.71 144.65, 150.27 105.92, 183.96 66.81 M88.43 186.19 C115.19 161.16, 137.88 132.38, 189.41 74.91 M89.93 187.79 C124.14 145.63, 159.91 105.85, 185.96 74.46 M98.87 185.45 C118.57 166.19, 141 141.99, 190.6 88.47 M100.22 184.97 C134.68 152.94, 164.5 119.53, 186.27 88.42 M110.81 190.57 C137.88 153.97, 164.7 127, 188.11 101.28 M111.92 189.9 C134.02 165.56, 155.41 139.18, 188.38 98.37 M123.49 187.32 C141.05 162.28, 161.27 138.19, 189.99 112.73 M124.88 184.16 C148.31 156.27, 172.63 126.71, 186.8 111.8"
              stroke="#4c6ef5" stroke-width="1" fill="none"></path>
        <path d="M38.44 20.52 C46.93 12.49, 58.17 7.39, 69.7 4.01 C81.24 0.63, 95.25 -1.65, 107.66 0.24 C120.07 2.12, 133.54 8.59, 144.15 15.33 C154.76 22.07, 164.46 30.81, 171.32 40.66 C178.18 50.51, 182.91 61.94, 185.32 74.44 C187.74 86.95, 188.86 103.69, 185.82 115.69 C182.78 127.69, 174.6 136.72, 167.09 146.43 C159.59 156.14, 150.93 167.52, 140.79 173.94 C130.65 180.35, 118.3 183.34, 106.25 184.93 C94.2 186.53, 80.86 186.88, 68.49 183.5 C56.12 180.13, 41.68 172.66, 32.03 164.68 C22.37 156.7, 15.76 146.34, 10.58 135.63 C5.4 124.91, 1.86 112.93, 0.95 100.39 C0.03 87.86, 1.14 72.02, 5.1 60.39 C9.05 48.77, 16.76 39.12, 24.67 30.66 C32.58 22.2, 44.92 13.96, 52.55 9.62 C60.18 5.28, 69.66 3.15, 70.45 4.62 M139.56 16.29 C150.29 21.7, 165.25 32.86, 172.47 42.14 C179.68 51.42, 181.15 59.89, 182.85 71.97 C184.55 84.06, 184.91 102.48, 182.65 114.66 C180.39 126.85, 176.47 134.99, 169.31 145.08 C162.16 155.18, 149.66 168.2, 139.7 175.24 C129.74 182.28, 121.72 186.44, 109.53 187.32 C97.33 188.2, 78.56 184.49, 66.52 180.53 C54.49 176.57, 46.69 171.21, 37.33 163.56 C27.97 155.91, 16.12 144.69, 10.38 134.63 C4.63 124.56, 4.26 115.07, 2.85 103.16 C1.44 91.24, -2 74.96, 1.91 63.14 C5.81 51.32, 17.22 41.61, 26.27 32.26 C35.33 22.9, 45.61 12.06, 56.24 7.01 C66.88 1.96, 78 2.26, 90.06 1.97 C102.12 1.69, 119.82 2.85, 128.62 5.31 C137.41 7.77, 140.44 14.71, 142.83 16.73 C145.22 18.75, 143.39 16.41, 142.96 17.41"
              stroke="#000" stroke-width="2" fill="none"></path>
    </g>
    <g stroke-linecap="round">
        <g transform="translate(84.34768839602611 186.43869741933122) rotate(0 19.1828786081453 -33.28113879003536)">
            <path d="M0 0 C0.39 -3.77, -0.15 -14.95, 2.31 -22.65 C4.78 -30.35, 8.78 -38.91, 14.79 -46.22 C20.8 -53.54, 34.44 -63.17, 38.37 -66.56 M0 0 C0.39 -3.77, -0.15 -14.95, 2.31 -22.65 C4.78 -30.35, 8.78 -38.91, 14.79 -46.22 C20.8 -53.54, 34.44 -63.17, 38.37 -66.56"
                  stroke="#000000" stroke-width="4" fill="none"></path>
        </g>
    </g>
    <g stroke-linecap="round">
        <g transform="translate(203.60510239365067 185.97645938058167) rotate(0 -9.122729932779748 -33.512257809410585)">
            <path d="M0 0 C0.15 -3.85, 1.77 -15.18, 0.92 -23.11 C0.08 -31.05, -1.69 -40.29, -5.08 -47.61 C-8.47 -54.93, -17.03 -63.79, -19.41 -67.02 M0 0 C0.15 -3.85, 1.77 -15.18, 0.92 -23.11 C0.08 -31.05, -1.69 -40.29, -5.08 -47.61 C-8.47 -54.93, -17.03 -63.79, -19.41 -67.02"
                  stroke="#000000" stroke-width="4" fill="none"></path>
        </g>
    </g>
    <g stroke-linecap="round"
       transform="translate(114.85539895355396 56.54980853044253) rotate(0 38.36575721629083 38.36575721629083)">
        <path d="M38.37 0 C45.58 -0.51, 55.04 2.99, 61.15 7.5 C67.26 12.01, 72.79 19.81, 75.03 27.06 C77.27 34.32, 77.09 43.88, 74.57 51.05 C72.06 58.22, 66.24 65.8, 59.96 70.07 C53.69 74.35, 44.5 76.99, 36.91 76.7 C29.32 76.42, 20.36 73.09, 14.43 68.35 C8.49 63.61, 3.26 55.61, 1.3 48.27 C-0.66 40.93, -0.12 31.39, 2.66 24.32 C5.44 17.25, 12.03 9.91, 17.98 5.86 C23.93 1.81, 34.97 0.85, 38.37 0 C41.76 -0.85, 38.37 0.13, 38.37 0.77 M38.37 0 C45.58 -0.51, 55.04 2.99, 61.15 7.5 C67.26 12.01, 72.79 19.81, 75.03 27.06 C77.27 34.32, 77.09 43.88, 74.57 51.05 C72.06 58.22, 66.24 65.8, 59.96 70.07 C53.69 74.35, 44.5 76.99, 36.91 76.7 C29.32 76.42, 20.36 73.09, 14.43 68.35 C8.49 63.61, 3.26 55.61, 1.3 48.27 C-0.66 40.93, -0.12 31.39, 2.66 24.32 C5.44 17.25, 12.03 9.91, 17.98 5.86 C23.93 1.81, 34.97 0.85, 38.37 0 C41.76 -0.85, 38.37 0.13, 38.37 0.77"
              stroke="#000000" stroke-width="4" fill="none"></path>
    </g>
    <g stroke-linecap="round"
       transform="translate(141.20296716233315 78.73723439046853) rotate(0 2.080071174377281 2.080071174377167)">
        <path d="M2.08 0 C2.5 -0.03, 3.08 0.2, 3.42 0.49 C3.76 0.77, 4.05 1.28, 4.13 1.72 C4.21 2.16, 4.1 2.73, 3.88 3.12 C3.66 3.51, 3.21 3.88, 2.79 4.03 C2.37 4.19, 1.79 4.19, 1.37 4.03 C0.95 3.88, 0.5 3.51, 0.28 3.12 C0.06 2.73, -0.05 2.16, 0.03 1.72 C0.11 1.28, 0.4 0.77, 0.74 0.49 C1.08 0.2, 1.86 0.07, 2.08 0 C2.3 -0.07, 2.08 0.01, 2.08 0.04 M2.08 0 C2.5 -0.03, 3.08 0.2, 3.42 0.49 C3.76 0.77, 4.05 1.28, 4.13 1.72 C4.21 2.16, 4.1 2.73, 3.88 3.12 C3.66 3.51, 3.21 3.88, 2.79 4.03 C2.37 4.19, 1.79 4.19, 1.37 4.03 C0.95 3.88, 0.5 3.51, 0.28 3.12 C0.06 2.73, -0.05 2.16, 0.03 1.72 C0.11 1.28, 0.4 0.77, 0.74 0.49 C1.08 0.2, 1.86 0.07, 2.08 0 C2.3 -0.07, 2.08 0.01, 2.08 0.04"
              stroke="none" stroke-width="0" fill="#000"></path>
        <path d="M2.08 0 C2.5 -0.03, 3.08 0.2, 3.42 0.49 C3.76 0.77, 4.05 1.28, 4.13 1.72 C4.21 2.16, 4.1 2.73, 3.88 3.12 C3.66 3.51, 3.21 3.88, 2.79 4.03 C2.37 4.19, 1.79 4.19, 1.37 4.03 C0.95 3.88, 0.5 3.51, 0.28 3.12 C0.06 2.73, -0.05 2.16, 0.03 1.72 C0.11 1.28, 0.4 0.77, 0.74 0.49 C1.08 0.2, 1.86 0.07, 2.08 0 C2.3 -0.07, 2.08 0.01, 2.08 0.04 M2.08 0 C2.5 -0.03, 3.08 0.2, 3.42 0.49 C3.76 0.77, 4.05 1.28, 4.13 1.72 C4.21 2.16, 4.1 2.73, 3.88 3.12 C3.66 3.51, 3.21 3.88, 2.79 4.03 C2.37 4.19, 1.79 4.19, 1.37 4.03 C0.95 3.88, 0.5 3.51, 0.28 3.12 C0.06 2.73, -0.05 2.16, 0.03 1.72 C0.11 1.28, 0.4 0.77, 0.74 0.49 C1.08 0.2, 1.86 0.07, 2.08 0 C2.3 -0.07, 2.08 0.01, 2.08 0.04"
              stroke="#000000" stroke-width="4" fill="none"></path>
    </g>
    <g stroke-linecap="round"
       transform="translate(167.55053537111598 77.35052027421352) rotate(0 2.080071174377281 2.080071174377167)">
        <path d="M2.08 0 C2.5 -0.03, 3.08 0.2, 3.42 0.49 C3.76 0.77, 4.05 1.28, 4.13 1.72 C4.21 2.16, 4.1 2.73, 3.88 3.12 C3.66 3.51, 3.21 3.88, 2.79 4.03 C2.37 4.19, 1.79 4.19, 1.37 4.03 C0.95 3.88, 0.5 3.51, 0.28 3.12 C0.06 2.73, -0.05 2.16, 0.03 1.72 C0.11 1.28, 0.4 0.77, 0.74 0.49 C1.08 0.2, 1.86 0.07, 2.08 0 C2.3 -0.07, 2.08 0.01, 2.08 0.04 M2.08 0 C2.5 -0.03, 3.08 0.2, 3.42 0.49 C3.76 0.77, 4.05 1.28, 4.13 1.72 C4.21 2.16, 4.1 2.73, 3.88 3.12 C3.66 3.51, 3.21 3.88, 2.79 4.03 C2.37 4.19, 1.79 4.19, 1.37 4.03 C0.95 3.88, 0.5 3.51, 0.28 3.12 C0.06 2.73, -0.05 2.16, 0.03 1.72 C0.11 1.28, 0.4 0.77, 0.74 0.49 C1.08 0.2, 1.86 0.07, 2.08 0 C2.3 -0.07, 2.08 0.01, 2.08 0.04"
              stroke="none" stroke-width="0" fill="#000"></path>
        <path d="M2.08 0 C2.5 -0.03, 3.08 0.2, 3.42 0.49 C3.76 0.77, 4.05 1.28, 4.13 1.72 C4.21 2.16, 4.1 2.73, 3.88 3.12 C3.66 3.51, 3.21 3.88, 2.79 4.03 C2.37 4.19, 1.79 4.19, 1.37 4.03 C0.95 3.88, 0.5 3.51, 0.28 3.12 C0.06 2.73, -0.05 2.16, 0.03 1.72 C0.11 1.28, 0.4 0.77, 0.74 0.49 C1.08 0.2, 1.86 0.07, 2.08 0 C2.3 -0.07, 2.08 0.01, 2.08 0.04 M2.08 0 C2.5 -0.03, 3.08 0.2, 3.42 0.49 C3.76 0.77, 4.05 1.28, 4.13 1.72 C4.21 2.16, 4.1 2.73, 3.88 3.12 C3.66 3.51, 3.21 3.88, 2.79 4.03 C2.37 4.19, 1.79 4.19, 1.37 4.03 C0.95 3.88, 0.5 3.51, 0.28 3.12 C0.06 2.73, -0.05 2.16, 0.03 1.72 C0.11 1.28, 0.4 0.77, 0.74 0.49 C1.08 0.2, 1.86 0.07, 2.08 0 C2.3 -0.07, 2.08 0.01, 2.08 0.04"
              stroke="#000000" stroke-width="4" fill="none"></path>
    </g>
    <g stroke-linecap="round">
        <g transform="translate(134.73163461982904 105.54704063799522) rotate(0 22.64966389877418 6.352999604586785)">
            <path d="M0 0 C1.46 1.93, 4.55 9.09, 8.78 11.56 C13.02 14.02, 20.42 15.64, 25.42 14.79 C30.43 13.94, 35.52 9.32, 38.83 6.47 C42.14 3.62, 44.22 -0.85, 45.3 -2.31 M0 0 C1.46 1.93, 4.55 9.09, 8.78 11.56 C13.02 14.02, 20.42 15.64, 25.42 14.79 C30.43 13.94, 35.52 9.32, 38.83 6.47 C42.14 3.62, 44.22 -0.85, 45.3 -2.31"
                  stroke="#000000" stroke-width="4" fill="none"></path>
        </g>
    </g>
    <g stroke-linecap="round" transform="translate(32.777777777777374 293.1111111111113) rotate(0 45 18)">
        <path d="M-1.07 0.5 L91.13 1.1 L91.11 34.15 L-1 36.44" stroke="none" stroke-width="0" fill="#fff"></path>
        <path d="M-0.96 -0.47 C28.04 -0.02, 53.3 -0.87, 88.72 0.5 M0.02 0.59 C32.62 -0.69, 64.42 -0.57, 90.54 0.05 M91.18 0.16 C91.63 9.78, 89.82 17.89, 89.31 34.58 M90.89 -0.54 C90.7 7.93, 91.29 15.15, 89.12 36.44 M90.52 35.26 C56.74 35.31, 21.51 36.34, 0.85 35.78 M90.67 36.75 C67.98 35.58, 45.89 35.29, 0.86 35.42 M1.25 34.87 C-1.75 25.69, -0.77 18.65, -0.88 1.14 M0.27 35.29 C-0.11 25.43, 0.77 15.27, 0.3 -0.14"
              stroke="#000000" stroke-width="1" fill="none"></path>
    </g>
    <g stroke-linecap="round" transform="translate(167.22222222222263 294.2222222222222) rotate(0 45 18)">
        <path d="M-0.9 0.36 L88.68 0.2 L91.66 37.97 L-1.6 36.7" stroke="none" stroke-width="0" fill="#fff"></path>
        <path d="M1.17 -0.49 C21.18 0, 40.11 0.79, 91.13 1.1 M0.22 -0.8 C31.85 0.23, 64.65 0.85, 89.5 -0.22 M89.07 -1.17 C88.38 13.58, 91.89 27.88, 91.87 37.57 M89.55 -0.8 C89.85 15.08, 89.3 28.87, 89.84 35.31 M91.62 35.58 C67.86 34.39, 42.99 34.74, -0.27 34.21 M89.51 36.71 C59.13 36.52, 28.58 36.2, 0.55 35.92 M-1.81 35.27 C-1.51 24.07, 0.56 10.4, 1.07 -1.13 M0.75 36.31 C0.73 27.43, 0.56 18.52, -0.64 0.44"
              stroke="#000000" stroke-width="1" fill="none"></path>
    </g>
    <g transform="translate(179.72222222222263 299.7222222222222) rotate(0 33.5 12.5)">
        <text x="33.5" y="18" font-family="Virgil, Segoe UI Emoji" font-size="20px" fill="#c92a2a" text-anchor="middle"
              style="white-space: pre;" direction="ltr">Decline
        </text>
    </g>
    <g transform="translate(40.99999999999909 297.5) rotate(0 38 12.5)">
        <text x="38" y="18" font-family="Virgil, Segoe UI Emoji" font-size="20px" fill="#2b8a3e" text-anchor="middle"
              style="white-space: pre;" direction="ltr">Acceept
        </text>
    </g>
</svg>