<svg version="1.1" xmlns="http://www.w3.org/2000/svg" viewBox="0 0 616.4341252786121 369.8703672331112"
     width="100%" height="100%" filter="invert(100%) hue-rotate(180deg)">
    <!-- svg-source:excalidraw -->

    <defs>
        <style>
            @font-face {
            font-family: "Virgil";
            src: url("https://excalidraw.com/Virgil.woff2");
            }
            @font-face {
            font-family: "Cascadia";
            src: url("https://excalidraw.com/Cascadia.woff2");
            }
        </style>
    </defs>
    <rect x="0" y="0" width="616.4341252786121" height="369.8703672331112" fill="#ffffff"></rect>
    <g stroke-linecap="round"
       transform="translate(18.771760885005733 10) rotate(0 292.2948688433057 174.9351836165556)">
        <path d="M0.27 0.33 C126.25 2.49, 253.68 2.1, 584.66 0.72 M0.27 -0.05 C226.23 -1.89, 451.7 -2.06, 584.44 0.15 M585 -0.33 C585.06 74.52, 584.97 149.41, 584.07 349.9 M584.74 0.02 C585.64 91.2, 585.64 181.45, 584.9 349.78 M584.4 349.12 C464.44 348.38, 342.75 348.13, -0.01 349.86 M584.9 349.9 C377.57 349.66, 171.25 349.83, -0.23 349.78 M-0.58 349.95 C-0.83 230.41, -1.67 111.68, 0.7 -0.28 M0.52 350.27 C0.75 214.42, -0.3 79.8, 0.11 0.52"
              stroke="#000000" stroke-width="1" fill="none"></path>
    </g>
    <g stroke-linecap="round">
        <g transform="translate(10.843297425983565 57.883304696933465) rotate(0 293.8865066639512 0.4398369062087113)">
            <path d="M0.4 0.5 C98.64 0.84, 490.34 1.17, 588.62 1.19 M-0.84 -0.29 C97.28 -0.17, 489.04 -0.12, 587.48 -0.31"
                  stroke="#000000" stroke-width="1" fill="none"></path>
        </g>
    </g>
    <g stroke-linecap="round"
       transform="translate(39.28771946963798 29.526438619869168) rotate(0 11.432603849125826 11.43260384912594)">
        <path d="M11.43 0 C13.76 -0.15, 16.9 1.1, 18.78 2.67 C20.66 4.25, 22.27 7.03, 22.69 9.45 C23.12 11.86, 22.56 15.03, 21.33 17.15 C20.11 19.27, 17.64 21.34, 15.34 22.18 C13.04 23.01, 9.82 23.01, 7.52 22.18 C5.22 21.34, 2.76 19.27, 1.53 17.15 C0.31 15.03, -0.25 11.86, 0.17 9.45 C0.6 7.03, 2.21 4.25, 4.08 2.67 C5.96 1.1, 10.21 0.41, 11.43 0 C12.66 -0.41, 11.43 0.04, 11.43 0.23 M11.43 0 C13.76 -0.15, 16.9 1.1, 18.78 2.67 C20.66 4.25, 22.27 7.03, 22.69 9.45 C23.12 11.86, 22.56 15.03, 21.33 17.15 C20.11 19.27, 17.64 21.34, 15.34 22.18 C13.04 23.01, 9.82 23.01, 7.52 22.18 C5.22 21.34, 2.76 19.27, 1.53 17.15 C0.31 15.03, -0.25 11.86, 0.17 9.45 C0.6 7.03, 2.21 4.25, 4.08 2.67 C5.96 1.1, 10.21 0.41, 11.43 0 C12.66 -0.41, 11.43 0.04, 11.43 0.23"
              stroke="none" stroke-width="0" fill="#fa5252"></path>
        <path d="M11.43 0 C13.76 -0.15, 16.9 1.1, 18.78 2.67 C20.66 4.25, 22.27 7.03, 22.69 9.45 C23.12 11.86, 22.56 15.03, 21.33 17.15 C20.11 19.27, 17.64 21.34, 15.34 22.18 C13.04 23.01, 9.82 23.01, 7.52 22.18 C5.22 21.34, 2.76 19.27, 1.53 17.15 C0.31 15.03, -0.25 11.86, 0.17 9.45 C0.6 7.03, 2.21 4.25, 4.08 2.67 C5.96 1.1, 10.21 0.41, 11.43 0 C12.66 -0.41, 11.43 0.04, 11.43 0.23 M11.43 0 C13.76 -0.15, 16.9 1.1, 18.78 2.67 C20.66 4.25, 22.27 7.03, 22.69 9.45 C23.12 11.86, 22.56 15.03, 21.33 17.15 C20.11 19.27, 17.64 21.34, 15.34 22.18 C13.04 23.01, 9.82 23.01, 7.52 22.18 C5.22 21.34, 2.76 19.27, 1.53 17.15 C0.31 15.03, -0.25 11.86, 0.17 9.45 C0.6 7.03, 2.21 4.25, 4.08 2.67 C5.96 1.1, 10.21 0.41, 11.43 0 C12.66 -0.41, 11.43 0.04, 11.43 0.23"
              stroke="#000000" stroke-width="1" fill="none"></path>
    </g>
    <g stroke-linecap="round"
       transform="translate(86.20112589308928 29.526438619869168) rotate(0 11.432603849125826 11.43260384912594)">
        <path d="M11.43 0 C13.76 -0.15, 16.9 1.1, 18.78 2.67 C20.66 4.25, 22.27 7.03, 22.69 9.45 C23.12 11.86, 22.56 15.03, 21.33 17.15 C20.11 19.27, 17.64 21.34, 15.34 22.18 C13.04 23.01, 9.82 23.01, 7.52 22.18 C5.22 21.34, 2.76 19.27, 1.53 17.15 C0.31 15.03, -0.25 11.86, 0.17 9.45 C0.6 7.03, 2.21 4.25, 4.08 2.67 C5.96 1.1, 10.21 0.41, 11.43 0 C12.66 -0.41, 11.43 0.04, 11.43 0.23 M11.43 0 C13.76 -0.15, 16.9 1.1, 18.78 2.67 C20.66 4.25, 22.27 7.03, 22.69 9.45 C23.12 11.86, 22.56 15.03, 21.33 17.15 C20.11 19.27, 17.64 21.34, 15.34 22.18 C13.04 23.01, 9.82 23.01, 7.52 22.18 C5.22 21.34, 2.76 19.27, 1.53 17.15 C0.31 15.03, -0.25 11.86, 0.17 9.45 C0.6 7.03, 2.21 4.25, 4.08 2.67 C5.96 1.1, 10.21 0.41, 11.43 0 C12.66 -0.41, 11.43 0.04, 11.43 0.23"
              stroke="none" stroke-width="0" fill="#fab005"></path>
        <path d="M11.43 0 C13.76 -0.15, 16.9 1.1, 18.78 2.67 C20.66 4.25, 22.27 7.03, 22.69 9.45 C23.12 11.86, 22.56 15.03, 21.33 17.15 C20.11 19.27, 17.64 21.34, 15.34 22.18 C13.04 23.01, 9.82 23.01, 7.52 22.18 C5.22 21.34, 2.76 19.27, 1.53 17.15 C0.31 15.03, -0.25 11.86, 0.17 9.45 C0.6 7.03, 2.21 4.25, 4.08 2.67 C5.96 1.1, 10.21 0.41, 11.43 0 C12.66 -0.41, 11.43 0.04, 11.43 0.23 M11.43 0 C13.76 -0.15, 16.9 1.1, 18.78 2.67 C20.66 4.25, 22.27 7.03, 22.69 9.45 C23.12 11.86, 22.56 15.03, 21.33 17.15 C20.11 19.27, 17.64 21.34, 15.34 22.18 C13.04 23.01, 9.82 23.01, 7.52 22.18 C5.22 21.34, 2.76 19.27, 1.53 17.15 C0.31 15.03, -0.25 11.86, 0.17 9.45 C0.6 7.03, 2.21 4.25, 4.08 2.67 C5.96 1.1, 10.21 0.41, 11.43 0 C12.66 -0.41, 11.43 0.04, 11.43 0.23"
              stroke="#000000" stroke-width="1" fill="none"></path>
    </g>
    <g stroke-linecap="round"
       transform="translate(135.17489404708067 31.586800350409703) rotate(0 11.432603849125826 11.43260384912594)">
        <path d="M11.43 0 C13.76 -0.15, 16.9 1.1, 18.78 2.67 C20.66 4.25, 22.27 7.03, 22.69 9.45 C23.12 11.86, 22.56 15.03, 21.33 17.15 C20.11 19.27, 17.64 21.34, 15.34 22.18 C13.04 23.01, 9.82 23.01, 7.52 22.18 C5.22 21.34, 2.76 19.27, 1.53 17.15 C0.31 15.03, -0.25 11.86, 0.17 9.45 C0.6 7.03, 2.21 4.25, 4.08 2.67 C5.96 1.1, 10.21 0.41, 11.43 0 C12.66 -0.41, 11.43 0.04, 11.43 0.23 M11.43 0 C13.76 -0.15, 16.9 1.1, 18.78 2.67 C20.66 4.25, 22.27 7.03, 22.69 9.45 C23.12 11.86, 22.56 15.03, 21.33 17.15 C20.11 19.27, 17.64 21.34, 15.34 22.18 C13.04 23.01, 9.82 23.01, 7.52 22.18 C5.22 21.34, 2.76 19.27, 1.53 17.15 C0.31 15.03, -0.25 11.86, 0.17 9.45 C0.6 7.03, 2.21 4.25, 4.08 2.67 C5.96 1.1, 10.21 0.41, 11.43 0 C12.66 -0.41, 11.43 0.04, 11.43 0.23"
              stroke="none" stroke-width="0" fill="#40c057"></path>
        <path d="M11.43 0 C13.76 -0.15, 16.9 1.1, 18.78 2.67 C20.66 4.25, 22.27 7.03, 22.69 9.45 C23.12 11.86, 22.56 15.03, 21.33 17.15 C20.11 19.27, 17.64 21.34, 15.34 22.18 C13.04 23.01, 9.82 23.01, 7.52 22.18 C5.22 21.34, 2.76 19.27, 1.53 17.15 C0.31 15.03, -0.25 11.86, 0.17 9.45 C0.6 7.03, 2.21 4.25, 4.08 2.67 C5.96 1.1, 10.21 0.41, 11.43 0 C12.66 -0.41, 11.43 0.04, 11.43 0.23 M11.43 0 C13.76 -0.15, 16.9 1.1, 18.78 2.67 C20.66 4.25, 22.27 7.03, 22.69 9.45 C23.12 11.86, 22.56 15.03, 21.33 17.15 C20.11 19.27, 17.64 21.34, 15.34 22.18 C13.04 23.01, 9.82 23.01, 7.52 22.18 C5.22 21.34, 2.76 19.27, 1.53 17.15 C0.31 15.03, -0.25 11.86, 0.17 9.45 C0.6 7.03, 2.21 4.25, 4.08 2.67 C5.96 1.1, 10.21 0.41, 11.43 0 C12.66 -0.41, 11.43 0.04, 11.43 0.23"
              stroke="#000000" stroke-width="1" fill="none"></path>
    </g>
    <g stroke-linecap="round"
       transform="translate(41.98968083416776 70.49073917211103) rotate(0 73.33333333333348 132.22222222222217)">
        <path d="M0 0 C0 0, 0 0, 0 0 M0 0 C0 0, 0 0, 0 0 M1.15 9.74 C3.71 6, 3.43 2.95, 10.09 -0.62 M1.16 12.08 C4.43 8.38, 8.54 4.28, 9.29 0.69 M3.62 26.82 C7.85 13.32, 14.38 1.73, 19.33 3.84 M-1.49 24.44 C5.28 17.96, 10.75 14.52, 22.54 1.33 M1.71 40.02 C10.56 25.69, 16.34 24.39, 34.89 -1.82 M-1.54 38.18 C10.35 24.64, 21.07 12.35, 31.14 0.43 M-2.18 48.33 C18.96 28.53, 34.96 12.68, 46.03 1.53 M-1.77 50.52 C16.25 28.8, 33.28 10.67, 43.24 -1.33 M2.81 59.67 C14.55 48.22, 23.53 27.07, 52.32 -0.22 M1.57 61.77 C13 43.23, 25.22 28.61, 52.37 1.13 M2.36 75.79 C17.34 47.7, 39.64 31.73, 66.97 -2.13 M-0.07 74.08 C13.48 56.91, 24.18 43.9, 63.33 -0.79 M-0.16 81.51 C27.61 49.6, 61.68 18.43, 72.41 0.31 M2.07 85.92 C30.68 49.17, 59.62 18.09, 74.46 0.42 M3.12 97.97 C24.67 67.15, 59.56 30.01, 87.71 -0.29 M-0.38 98.6 C33.14 60.62, 65.73 23.68, 83.91 -1.91 M-1.28 112.16 C27.66 78.74, 61 44.95, 92.11 -2.75 M-0.05 111.01 C32.97 72.5, 66.37 33.15, 95.86 1.15 M-0.65 125.87 C33.44 86.16, 64.56 49.41, 108.55 -0.81 M0.53 121.9 C33.06 87.84, 62.4 53.08, 106.76 -0.15 M2.06 133.24 C28.73 101.7, 63.19 68.4, 118.45 -1.88 M1.77 132.59 C44.19 81.95, 87.45 33.5, 114.97 0.29 M-0.93 149.98 C25.83 113.12, 52.76 84.08, 123.89 -1.55 M0.59 145.47 C43.13 96.15, 85.17 50.03, 125.59 -0.85 M-3.03 162.19 C46.88 96.52, 105.4 35.99, 138.97 1.29 M0.04 158.58 C52.21 104.47, 97.56 51.42, 136.88 1.74 M-2.54 170.18 C32.67 132.44, 64.1 94.03, 148.11 -0.4 M-1.46 171.96 C34.66 129.05, 70.72 85.23, 147.97 2.3 M-1.3 184.26 C32.83 149.4, 62.61 108.67, 147.63 13.85 M-1.1 183.13 C39.86 133.71, 83.41 84.7, 146.09 14.4 M0.72 193.18 C56.48 132.77, 113.42 69.92, 146.01 21.75 M-0.96 195.74 C55.03 133.03, 110.56 71.8, 149.2 25.85 M0.55 209.92 C54.73 151.59, 100.78 96.43, 145.5 36.85 M0.15 208.16 C29.07 171.74, 60.05 133, 148.28 37.18 M1.64 221.21 C40.05 178.7, 79.51 137.44, 147.41 46.93 M1.1 219.13 C54.2 159.6, 104.7 99.84, 145.92 49.09 M-1.22 229.64 C52.7 175.03, 107.75 112.5, 150.88 62.91 M-0.5 233.17 C39.92 186.09, 80.77 140.33, 147.13 60.95 M-2.16 241.4 C34.15 202.93, 66.88 168.92, 145.08 72.25 M0.07 242.52 C42.99 196.65, 86.23 148.97, 147.07 73.42 M0.75 253.4 C47.6 207.07, 91.63 150.95, 149.15 87.95 M-1.43 256.56 C33.44 213.47, 66.82 176.71, 149.28 86.86 M2.35 263.27 C40.24 219.25, 82.84 167.07, 145.92 98.15 M1.51 264.79 C51.19 204.27, 103.14 146.14, 146.4 96.82 M12.31 267.22 C49.85 224.58, 92.56 180.33, 145.99 112.03 M12.83 266.63 C64.51 212.65, 115.06 152.99, 149 109.91 M20.49 262.89 C53.73 228.04, 92.51 190.15, 145.16 126.64 M22.25 265.56 C71.44 211.36, 120.49 155.06, 148.71 121.74 M34.94 267.19 C71.99 223.42, 117.93 173.78, 144.97 132.77 M34.23 265.01 C52.34 241.83, 76.9 214.31, 146.85 133.51 M43.79 262.52 C71.59 234.83, 98.37 200.03, 150.94 150.05 M45.59 266.36 C74.95 228.23, 107.96 190.35, 146.69 146.73 M50.84 264.26 C80.94 231.35, 113.4 200.3, 151.9 159.57 M55.35 266.32 C86.52 228.4, 116.05 194.27, 149.88 158.12 M63.05 269.39 C100.25 234.05, 128.88 193.41, 146.7 173.26 M67.09 266.66 C88.99 239.22, 114.5 210.64, 146.17 169.99 M78.07 268.94 C92.73 241.94, 111.03 228.77, 150.35 187.34 M75.15 268 C104.12 233.07, 132.78 199.64, 146.33 184.97 M87.71 268.53 C107.63 242.94, 127.56 217.3, 145.55 199.4 M86.94 267.54 C98.31 251.61, 111.89 237.16, 148.45 196.3 M97.44 268.84 C109.57 256.51, 114.44 245.21, 144.84 209.83 M97.12 264.83 C114.97 244.39, 134.81 224.08, 146.82 206.52 M105.94 262.17 C114.02 251.48, 129.6 246.25, 145.41 219.1 M105.94 267.48 C123.18 248.84, 134.33 235.68, 149.51 218.05 M116.52 268.85 C124.42 256.74, 134.46 255.44, 147.98 233.03 M117.4 264.96 C127.17 259.27, 130.98 249.75, 147.98 231.62 M132.69 269.83 C139.36 256.16, 140.72 252.47, 146.91 248.24 M129.55 266.31 C133.54 258.18, 141.18 254.45, 145.95 245.04 M138.49 266.64 C141.76 264.93, 144.01 260.69, 146.53 254.68 M140.36 265.94 C142.05 264.1, 142.82 261.48, 146.49 256.04"
              stroke="#4c6ef5" stroke-width="1" fill="none"></path>
        <path d="M-0.83 -0.8 C45.83 -2.72, 94.67 -0.11, 143.49 0.37 M-1.93 -1.02 C45.73 -2.83, 90.98 -2.61, 147.98 1.43 M145.7 -2 C147.35 84.26, 150.92 162.62, 145.44 263.23 M148.03 -1.5 C146.8 63.46, 147.46 128.45, 147.85 262.91 M142.95 263.21 C93.89 265.19, 43.02 262.59, 1.41 263.46 M146.52 264.02 C100.64 263.94, 53.14 261.01, -0.86 262.87 M-0.28 265.46 C3.53 208.59, -1.72 149.29, -2.61 -0.07 M1.48 264.58 C0.41 201.8, -0.45 139.97, -0.58 -1.33"
              stroke="#000000" stroke-width="2" fill="none"></path>
    </g>
    <g stroke-opacity="0.8" fill-opacity="0.8" stroke-linecap="round"
       transform="translate(216.55821767370844 76.69211719134273) rotate(0 90.98701871601384 66.26247225679015)">
        <path d="M0 0 C0 0, 0 0, 0 0 M0 0 C0 0, 0 0, 0 0 M-0.01 6.77 C2.32 3.59, 4.24 1.89, 5.2 0.49 M0.1 6.21 C1.48 4.21, 3.13 2.64, 4.87 0.48 M1.45 11.8 C3.97 6.4, 8.74 3.37, 9.64 0.48 M-0.27 12.57 C2.81 9.41, 5.49 6, 11.11 -0.48 M-1.14 17.35 C4.66 16.13, 7.44 9.79, 13.86 -1.62 M-0.02 17.91 C2.94 14.5, 8.28 8.71, 14.72 0.12 M-1.71 23.5 C8.78 14.8, 17.09 5.96, 20.36 -2.05 M1.22 24.39 C7.56 15.82, 13.72 7.35, 20.86 0.77 M1.98 31.08 C9.91 22.5, 17.96 12.34, 25.33 1.05 M0.39 30.64 C10.78 19.16, 21.02 5.34, 27 0.89 M1.38 35.51 C7.25 26.52, 18.03 15.94, 31.15 -0.56 M-0.22 36.46 C9.26 26.21, 19.02 15.3, 32.5 0.4 M1.27 43.24 C13.3 27.92, 27.53 12.67, 38.66 -0.82 M0.07 42.05 C13.81 25.72, 29.54 9.81, 36.62 0.54 M-0.42 48.26 C9.24 37.18, 20.97 26.32, 42.16 0.88 M-0.52 49.19 C11.5 35.34, 23.95 20.62, 42.89 0.68 M1.65 53.12 C18.66 36.09, 33.98 13.41, 45.93 -0.08 M-0.48 54.79 C12.26 40.02, 26.41 25.51, 46.99 -0.71 M0.82 61.14 C17.19 40.71, 36.11 19.58, 51.19 -1.28 M0.82 61.84 C21.1 37.51, 41.33 14.48, 53.11 0.7 M0.73 65.43 C14.64 47.88, 33.37 29.82, 56.62 -0.99 M-1.1 66.95 C20.88 42.55, 40.88 19.59, 57.84 0.06 M-0.92 73.39 C14.59 56.03, 28.55 40.63, 65.37 -1.98 M-0.73 73.55 C17.06 52.42, 34.64 33.96, 64.53 0.2 M-0.53 79.22 C18.31 58.87, 33.3 39.14, 69.56 0.82 M0.64 79.01 C17.75 59.17, 34.61 39.07, 69.19 0.47 M1.7 84.89 C26.59 52.76, 56.78 22.21, 73.25 0.47 M0.61 84.21 C25.28 55.31, 51.69 26.56, 74.83 -0.35 M-1.74 92.43 C31.57 56.24, 63.09 19.97, 80.97 -1.64 M-0.46 90.45 C16.77 71.63, 35.59 50.8, 79.39 0.81 M0.73 96.89 C29.67 66.28, 57.86 32.71, 84.72 0.39 M0.28 97.1 C22.3 73.09, 43.15 48.17, 86.03 0.19 M-0.5 102.88 C27.17 69.54, 58.5 36.37, 88.44 1.27 M-0.67 102.65 C18.67 82.6, 35.79 62.3, 89.09 0.06 M-0.42 109.03 C27.76 77.76, 55.94 44.69, 95.06 0.71 M0 109.94 C29.28 76.35, 58.72 42.64, 96.42 -0.36 M-1.04 117.01 C28.83 80.84, 56.71 51.51, 98.94 -0.22 M0.09 115.69 C38.89 70.6, 76.02 25.15, 101.27 -0.1 M1.07 123.79 C25.39 94.93, 45.53 69.07, 104.93 1.01 M-0.17 121.43 C32.58 86.21, 64.83 49.19, 106.65 0.51 M1.14 126.63 C33.8 87.82, 71.48 46.4, 112.82 0.77 M-0.47 129.09 C25.81 96.21, 53.6 64.29, 111.21 0.68 M2.68 134.81 C39.24 86.35, 79.32 43.65, 115.7 2.21 M1.46 133.4 C31.05 97.44, 64.25 59.59, 116.98 0.77 M3.8 135.15 C44.82 91.13, 81.55 44.66, 123.78 -0.24 M5.56 133.99 C45.13 90.14, 82.24 45.97, 122.5 -0.55 M11.82 134.53 C47.76 92.08, 82.93 48.32, 128.1 -0.36 M11.42 132.59 C54.23 83.52, 96.58 34.95, 125.99 0.8 M16.86 133.12 C43.8 103.1, 68.86 72.99, 130.92 0.85 M17.22 132.81 C41.53 102.01, 70.66 71.71, 133.05 -0.06 M22.24 133.87 C46.91 104.08, 75.51 71.02, 138.23 -0.53 M21.53 132.3 C64.83 86.61, 107.24 37.41, 136.58 -0.08 M29.01 134.78 C70.2 80.75, 116.39 31.45, 142.71 0.82 M27.21 133.64 C56.46 100.88, 84.55 68.84, 143.08 0.57 M30.92 133.11 C56.54 105.42, 81.69 76.98, 148.26 -0.22 M31.75 133.2 C68.81 90.19, 107.19 47.91, 148.62 -0.6 M38.91 133.69 C80.42 84.47, 121.37 35.9, 152.98 1.03 M37.17 134.02 C72.93 94.62, 105.52 55.08, 153.13 0.45 M44.18 133.12 C89.85 79.89, 135.07 31.98, 157.71 -0.74 M42.38 132.66 C86.63 83.77, 129.8 34.27, 158.31 1.19 M46.59 132.05 C93.95 80.27, 137.38 31.46, 164.97 -0.52 M49.04 134.13 C72.63 107.55, 96.62 80.14, 164.03 -0.62 M53.75 131.39 C94.84 84.18, 138.37 34.26, 167.49 1.22 M53.99 132.72 C92.4 89.5, 129.86 46.96, 170.15 -0.06 M57.45 132.65 C94.59 93.98, 131.53 52.34, 175.25 -1.19 M59.07 132.87 C90.22 100.24, 120.33 65.34, 174.94 -0.16 M64.71 134.07 C103.54 88.62, 143.23 39.86, 179.88 1.6 M65.51 132.1 C91.16 100.95, 116.16 72.18, 180.94 0.97 M70.27 134.95 C93.07 106.96, 116.29 81.84, 183.82 0.52 M69.82 133.82 C94.17 106.25, 118.78 78.45, 183.37 1.26 M75.55 131.88 C118.43 86.1, 157.83 40.56, 183.98 8.52 M76.15 132.24 C99.6 103.96, 125.5 74.99, 183.26 7.84 M81.2 135.01 C120.27 87.94, 160.04 43.33, 183.47 16.05 M80.17 133.24 C107.02 100.99, 134.91 68.5, 184.53 15.06 M86.09 132.23 C116.89 95.81, 150 59.99, 183.43 20.13 M85.44 133.24 C119.38 95.15, 152.88 56.27, 185.17 20.23 M91.78 133.51 C125.05 91.79, 159.69 51.98, 183.44 28.08 M91.3 134.08 C122.87 97.78, 154.05 60.82, 183.06 25.96 M97.55 131.1 C121.68 101.7, 150.52 73.16, 183.92 34.49 M97.23 133.89 C114.2 112.22, 132.86 91.05, 183.7 31.76 M100.9 131.78 C132.52 99.97, 161.24 66.4, 185.83 37.74 M100.72 133.98 C132.35 98.97, 162.2 64.45, 183.35 37.2 M108.53 133.12 C125.13 111.1, 145.44 91.46, 182.54 44.52 M107.67 133.69 C123.05 114.45, 138.3 97.13, 184.22 45.01 M112.85 131.75 C138.75 103.25, 162.23 76.81, 186.1 50.78 M112.24 133.27 C139.73 100.99, 167.72 68.74, 184.14 50.7 M118.33 132.31 C137.22 106.7, 160.04 81.44, 183.79 58.04 M116.58 133.55 C137.55 109.94, 159.85 83.54, 184.46 57.48 M121.28 131.98 C144.23 105.95, 166.21 81.2, 184.43 62.34 M121.98 132.97 C141.24 113.24, 157.56 92.82, 183.78 63.82 M129.62 133.02 C148.73 112.6, 168.34 87.35, 182.2 66.75 M128.05 132.82 C141.33 117.42, 154.78 100.22, 185.1 68.63 M133.23 131.67 C148.31 115.35, 162.23 99.22, 184.37 73.9 M132.39 132.77 C145.09 119.12, 157.38 106.27, 182.95 74.36 M136.45 134.52 C153.48 115.52, 166.84 97.68, 185.67 78.95 M138.53 133.81 C154.19 115.41, 169.07 97.64, 185.14 80.6 M145.09 134.63 C160.18 114.42, 175.44 96.65, 184.83 85.86 M144.22 133.07 C155.22 120.94, 163.67 110.39, 184.64 87.03 M150.91 131.92 C161.79 119.43, 171.95 106.85, 182.83 92.35 M149.41 132.75 C162.88 117.48, 175.86 102.26, 183.25 92.97 M154.64 133.3 C160.74 123.36, 167.73 116.72, 182.79 98.45 M154.53 132.94 C163.01 124.57, 169.37 115.84, 184.81 98.53 M158.47 133 C168.17 125.82, 174.17 117.85, 185.65 106.99 M160.42 132.55 C165.95 124.29, 174.28 117.87, 184.35 105.75 M165.04 132.75 C172.56 127.29, 178.15 118.18, 184.59 112.56 M164.69 132.14 C169.15 128.8, 174.17 123.88, 183.77 110.21 M169.97 134.11 C172.04 128.17, 175.88 125.57, 185.49 117.82 M169.59 132.84 C172.29 129.54, 175.57 126.33, 183.74 117.9 M176.44 134 C177.94 131.02, 181.11 125.73, 184.67 123.05 M176.19 133.09 C179.27 130.08, 182.06 126.11, 183.56 124.5 M181.05 133.1 C181.71 132.48, 182.61 131.6, 184.05 129.11 M180.96 133.5 C182.13 132.15, 183.08 130.49, 184.02 129.77 M0.04 132.56 C0.04 132.56, 0.04 132.56, 0.04 132.56 M0.04 132.56 C0.04 132.56, 0.04 132.56, 0.04 132.56 M6.23 132.71 C5.44 132.26, 3.09 129.96, -0.82 126.15 M6.71 132.54 C4.53 131.48, 3.27 129.78, -0.17 127.32 M12.38 131.47 C10.05 130.82, 5.4 125.85, 0.33 121.01 M11.77 133.07 C8.27 129.3, 4.27 125.06, 0.09 122.66 M17.52 134.22 C12.98 130.71, 10.55 123.56, 0.04 117.97 M19.43 132.34 C13.52 128.3, 9.96 126.31, -0.38 116.11 M22.7 132.81 C15.67 124.94, 7.43 118.31, 0.32 111.55 M24.7 133.09 C14.5 123.99, 6.67 117.41, -0.94 111.88 M30.12 131.66 C23.03 123.65, 11.74 117.86, -0.38 105.29 M31.22 132.27 C20.82 123.72, 10.71 115.9, -0.4 106.81 M34.95 134.52 C22.97 120.56, 10.9 113.15, 0.4 101.61 M37.88 132.07 C27.6 124.26, 19.47 117.23, 0.89 100.21 M41.49 132.41 C30.43 121.8, 18.66 111, 0.98 97.11 M42.03 133.03 C32.31 125.19, 22.61 116.83, 0.24 96.2 M47.1 131.86 C38.86 123.39, 24.42 111.83, -0.75 91.56 M48.97 132.77 C32.79 118.51, 16.71 104.67, -0.26 89.3 M54.73 132.58 C34.55 115.08, 17.71 99.34, 0.43 83.39 M53.75 132.35 C38.7 117.52, 21.04 101.88, -0.64 84.6 M60.67 130.93 C48.02 120.4, 34.36 106.85, 0.83 78.67 M60.31 132.4 C43.07 117.36, 25.57 102.38, 0.09 79.33 M67.05 133.59 C52.85 119.53, 40.25 109.77, -0.39 74.68 M67.36 133.32 C52.49 118.74, 37.83 105.73, 1.08 75.03 M73.83 133.79 C53.06 112.59, 33.05 96.25, -1.51 68.82 M73.76 132.23 C55.93 117.59, 38.47 102.15, 0.73 69.15 M78.8 131.5 C61.26 118.21, 43.39 100.25, 1.55 62.17 M79.88 131.73 C58 115.27, 38.24 97.51, -0.16 63.19 M86.1 131.12 C61.01 111.84, 39.17 89.02, -1.06 56.5 M85.51 132.22 C54.6 106.45, 23.96 80.17, 0.74 58.31 M89.94 132.96 C68.03 114.1, 45.55 93.35, -1.35 53.69 M90.92 132.03 C55.59 102.57, 20.3 70.21, 0.39 53.47 M99.14 130.9 C70.87 111.1, 48.34 90.22, -1.73 48.84 M98.81 133.67 C66.74 105.78, 37.33 77.97, -0.47 47.05 M105.07 132.61 C75.11 107.13, 48.55 84.18, 0.7 41.67 M103.63 132.7 C76.58 110.02, 48.79 85.86, -0.2 42.95 M109.72 131.77 C71.63 97.82, 35.8 65.82, -2.05 37.59 M108.98 132.58 C85.97 111.59, 59.86 87.75, -1.17 36.27 M114.15 133.7 C73.37 93.69, 25.72 55.57, -1.15 31.17 M115.48 132.92 C71.96 95.79, 27.11 57.09, -0.57 31.39 M122.25 130.92 C88.27 104.57, 60.28 77.26, 0.82 27.13 M121.89 131.63 C85.43 99.57, 46.92 65.97, 0.66 25.6 M129.27 132.76 C92.57 99.42, 52.74 69.41, 1.62 19.88 M129 133.2 C85.88 97.68, 43.73 59.75, 0.99 21.25 M133.77 133.57 C85.81 89.25, 32.75 44.93, -0.9 14.47 M134.98 131.52 C80.53 85.63, 27.52 38.05, -0.63 15.33 M141.65 132.98 C98.12 95.86, 51.95 58.04, -1.07 10.12 M140.79 132.77 C89.96 87.64, 40.17 44.96, 0.46 9.66 M146.66 133.51 C102.67 93.57, 64.51 59.49, -1.62 5.23 M146 131.64 C110.5 101.05, 74.25 71.15, -0.38 4.44 M153.96 132.18 C120 104.81, 88.02 76.7, -1.75 0.75 M152.04 133.42 C94.93 83.43, 36.69 32.35, 0.15 0.41 M157.63 133.74 C123.01 103.78, 88.52 74.49, 0.87 -3.64 M159.67 132.74 C119.21 99.34, 81.68 64.45, 3.31 -2.79 M166 132.04 C104.04 80.21, 44.71 27.63, 8.73 -4.36 M165.26 133.27 C104.16 79.14, 44.54 26.64, 9.7 -2.07 M169.97 132.38 C131.98 99.54, 93.89 69.49, 16.1 -4.13 M171.13 132.28 C128.81 93.41, 86.15 57.13, 14.09 -2.74 M174.85 131.06 C136.14 94.25, 94.06 60.1, 22.65 -3.07 M175.95 132.87 C141.28 100.82, 107.93 69.49, 20.32 -3.61 M182.3 132.59 C147.19 99.24, 109.74 68.07, 26.02 -4.57 M182.78 131.63 C141.48 95.33, 101.6 60.84, 26.1 -4.07 M183.69 126.67 C136.7 87.02, 93.05 48.08, 32.91 -4.6 M182.89 126.28 C150.71 96.32, 115.67 68.51, 33.71 -3.43 M180.22 121.98 C136.75 82.07, 89.73 39.37, 41.46 -4.37 M181.28 121.79 C150.58 93.46, 118.14 65.49, 40.08 -2.79 M180.93 114.87 C131.21 69.59, 81.63 24.44, 43.64 -3.64 M182.05 115.35 C131.47 70.48, 82.08 25.78, 45.81 -2.6 M180.15 111.02 C148.35 82.08, 111.77 54.02, 49.82 -3.74 M183.09 111.47 C152.3 84.73, 121.99 57.58, 50.89 -3.46 M181.34 105.03 C156.48 83.2, 130.76 59.15, 57.21 -2.13 M183.35 106.08 C141.15 68.94, 99.55 30.87, 56.4 -3.93 M180.76 101.38 C154.1 74.82, 125.69 51.96, 61.6 -4.81 M181.89 100.15 C153.69 75.39, 125.72 51.38, 63.74 -2.41 M183.29 94.01 C139.75 60.1, 100.17 21.05, 69.89 -4.73 M183.08 95.83 C155.43 71.35, 130.4 48.44, 70.42 -2.83 M182.09 91.25 C156.9 64.13, 127.04 40.57, 76.03 -1.56 M181.64 90.05 C154.25 66.1, 128.1 42.56, 75.47 -3.84 M182.47 83.33 C158.78 63.78, 139.92 47.21, 81.09 -1.45 M181.83 84.65 C152.95 60.79, 124.75 35.54, 82.86 -1.96 M182.29 80.08 C147.26 47.99, 108.47 15.24, 85.69 -3.39 M183.32 78.7 C149.69 51.42, 115.96 23.43, 87.26 -3.28 M184 75.11 C149.35 43.79, 115.81 16.64, 93.83 -3.69 M182.52 73.27 C153.31 48.75, 123.22 22, 93.29 -3.34 M182.64 70.02 C160.98 48.89, 137.67 29.21, 101.31 -2.37 M182.01 68.36 C159.79 49.18, 136.54 29.62, 101.31 -2.88 M182.33 64.09 C161.73 45.55, 138.74 27.19, 107.77 -2.88 M182.36 63.11 C157.06 41.48, 133.46 20.09, 106.84 -2.96 M184.03 57.77 C164.43 42.76, 147.35 27.61, 112.71 -3.94 M183.32 57.97 C162.08 40.8, 142.35 23.97, 111.91 -2.12 M181.3 53.66 C170.15 40.11, 155.3 28.67, 119.94 -1.83 M182.88 52.28 C166.08 38.37, 148.93 22.64, 118.94 -4.12 M184.01 48.04 C167.34 33.07, 155.09 19.77, 125.38 -2.94 M182.45 48.46 C169.37 35.13, 154.1 23.63, 123.89 -3.78 M182.13 43.83 C169.32 28.33, 154.88 16.07, 129.51 -2.08 M181.93 41.58 C170.38 32.79, 160.08 21.74, 130.11 -2.76 M181.47 38.13 C171.16 26.71, 157.61 18.44, 137.4 -2.26 M182.9 37.49 C169.19 25.12, 155.24 14.2, 135.68 -2.64 M183.42 31.21 C175.88 23.25, 168 17.24, 142.72 -2.49 M181.67 30.48 C168.75 20, 156.48 7.66, 142.89 -2.13 M180.7 25.98 C173.1 17.89, 164.97 9.57, 148.23 -4.12 M182.48 25.38 C172.13 18.8, 163.12 8.76, 147.99 -2.76 M181.12 21.05 C170.59 13.35, 159.91 1.95, 153.51 -3.34 M182.56 21.16 C176.35 14.59, 169.9 9.04, 154.41 -2.8 M183.35 14.17 C175.97 11.96, 168.52 6.01, 159.48 -1.51 M183.32 15.13 C176.17 9.76, 168.48 3.79, 160.6 -2.9 M180.59 11.24 C175.94 5.42, 170.86 -0.34, 168.39 -4.96 M181.39 10.49 C176.06 4.71, 169.78 0.1, 167.37 -3.32 M183.67 5.51 C180.83 3.11, 177.37 0.31, 172.49 -4 M182.11 4.67 C179.58 2.62, 175.94 -0.44, 173.39 -2.99"
              stroke="#fab005" stroke-width="0.5" fill="none"></path>
        <path d="M0.42 -1.15 C55.29 0.3, 112.59 1.48, 183.26 0.6 M-0.79 -0.18 C39.62 1.34, 79.41 2.31, 182.81 -0.78 M180.62 0.55 C179.35 49.33, 181.05 96.91, 180.51 133.42 M182.55 -0.54 C181.89 27.64, 182.18 54.51, 182.82 133.1 M182.6 134.38 C135.02 130.9, 92.54 132.82, -1.18 130.71 M181.67 133.02 C144.72 134.12, 104.97 134.08, -0.81 131.83 M0.79 133.16 C0.73 103.98, 0.27 73.89, 0.62 1.69 M0.92 131.57 C2.04 89.53, 1.8 44.57, -0.22 -0.71"
              stroke="#000000" stroke-width="1" fill="none"></path>
    </g>
    <g stroke-linecap="round">
        <g transform="translate(257.6020261404069 198.15212150405682) rotate(0 15.039002870406193 -26.091764016126376)">
            <path d="M0 0 C0.3 -2.96, -0.12 -11.72, 1.81 -17.76 C3.74 -23.8, 6.89 -30.5, 11.6 -36.24 C16.31 -41.98, 27 -49.53, 30.08 -52.18 M0 0 C0.3 -2.96, -0.12 -11.72, 1.81 -17.76 C3.74 -23.8, 6.89 -30.5, 11.6 -36.24 C16.31 -41.98, 27 -49.53, 30.08 -52.18"
                  stroke="#000000" stroke-width="2" fill="none"></path>
        </g>
    </g>
    <g stroke-linecap="round">
        <g transform="translate(351.0975138648655 197.78973589271936) rotate(0 -7.152042425309219 -26.272956821793855)">
            <path d="M0 0 C0.12 -3.02, 1.39 -11.9, 0.72 -18.12 C0.06 -24.34, -1.33 -31.59, -3.99 -37.33 C-6.64 -43.06, -13.35 -50.01, -15.22 -52.55 M0 0 C0.12 -3.02, 1.39 -11.9, 0.72 -18.12 C0.06 -24.34, -1.33 -31.59, -3.99 -37.33 C-6.64 -43.06, -13.35 -50.01, -15.22 -52.55"
                  stroke="#000000" stroke-width="2" fill="none"></path>
        </g>
    </g>
    <g stroke-linecap="round"
       transform="translate(281.51947648853593 96.32176471889852) rotate(0 30.078005740812387 30.078005740812273)">
        <path d="M30.08 0 C36.2 -0.38, 44.47 2.89, 49.41 7.04 C54.35 11.18, 58.58 18.51, 59.7 24.86 C60.82 31.2, 59.35 39.54, 56.13 45.12 C52.9 50.7, 46.42 56.14, 40.37 58.34 C34.31 60.55, 25.85 60.55, 19.79 58.34 C13.73 56.14, 7.25 50.7, 4.03 45.12 C0.81 39.54, -0.66 31.2, 0.46 24.86 C1.58 18.51, 5.81 11.18, 10.74 7.04 C15.68 2.89, 26.86 1.07, 30.08 0 C33.3 -1.07, 30.08 0.1, 30.08 0.6 M30.08 0 C36.2 -0.38, 44.47 2.89, 49.41 7.04 C54.35 11.18, 58.58 18.51, 59.7 24.86 C60.82 31.2, 59.35 39.54, 56.13 45.12 C52.9 50.7, 46.42 56.14, 40.37 58.34 C34.31 60.55, 25.85 60.55, 19.79 58.34 C13.73 56.14, 7.25 50.7, 4.03 45.12 C0.81 39.54, -0.66 31.2, 0.46 24.86 C1.58 18.51, 5.81 11.18, 10.74 7.04 C15.68 2.89, 26.86 1.07, 30.08 0 C33.3 -1.07, 30.08 0.1, 30.08 0.6"
              stroke="#000000" stroke-width="2" fill="none"></path>
    </g>
    <g stroke-linecap="round"
       transform="translate(302.1754563346308 113.71627406297648) rotate(0 1.6307352510079909 1.6307352510078772)">
        <path d="M1.63 0 C1.96 -0.02, 2.41 0.16, 2.68 0.38 C2.95 0.61, 3.18 1, 3.24 1.35 C3.3 1.69, 3.22 2.14, 3.04 2.45 C2.87 2.75, 2.52 3.04, 2.19 3.16 C1.86 3.28, 1.4 3.28, 1.07 3.16 C0.74 3.04, 0.39 2.75, 0.22 2.45 C0.04 2.14, -0.04 1.69, 0.02 1.35 C0.09 1, 0.31 0.61, 0.58 0.38 C0.85 0.16, 1.46 0.06, 1.63 0 C1.81 -0.06, 1.63 0.01, 1.63 0.03 M1.63 0 C1.96 -0.02, 2.41 0.16, 2.68 0.38 C2.95 0.61, 3.18 1, 3.24 1.35 C3.3 1.69, 3.22 2.14, 3.04 2.45 C2.87 2.75, 2.52 3.04, 2.19 3.16 C1.86 3.28, 1.4 3.28, 1.07 3.16 C0.74 3.04, 0.39 2.75, 0.22 2.45 C0.04 2.14, -0.04 1.69, 0.02 1.35 C0.09 1, 0.31 0.61, 0.58 0.38 C0.85 0.16, 1.46 0.06, 1.63 0 C1.81 -0.06, 1.63 0.01, 1.63 0.03"
              stroke="none" stroke-width="0" fill="#000"></path>
        <path d="M1.63 0 C1.96 -0.02, 2.41 0.16, 2.68 0.38 C2.95 0.61, 3.18 1, 3.24 1.35 C3.3 1.69, 3.22 2.14, 3.04 2.45 C2.87 2.75, 2.52 3.04, 2.19 3.16 C1.86 3.28, 1.4 3.28, 1.07 3.16 C0.74 3.04, 0.39 2.75, 0.22 2.45 C0.04 2.14, -0.04 1.69, 0.02 1.35 C0.09 1, 0.31 0.61, 0.58 0.38 C0.85 0.16, 1.46 0.06, 1.63 0 C1.81 -0.06, 1.63 0.01, 1.63 0.03 M1.63 0 C1.96 -0.02, 2.41 0.16, 2.68 0.38 C2.95 0.61, 3.18 1, 3.24 1.35 C3.3 1.69, 3.22 2.14, 3.04 2.45 C2.87 2.75, 2.52 3.04, 2.19 3.16 C1.86 3.28, 1.4 3.28, 1.07 3.16 C0.74 3.04, 0.39 2.75, 0.22 2.45 C0.04 2.14, -0.04 1.69, 0.02 1.35 C0.09 1, 0.31 0.61, 0.58 0.38 C0.85 0.16, 1.46 0.06, 1.63 0 C1.81 -0.06, 1.63 0.01, 1.63 0.03"
              stroke="#000000" stroke-width="2" fill="none"></path>
    </g>
    <g stroke-linecap="round"
       transform="translate(322.8314361807311 112.62911722897297) rotate(0 1.6307352510079909 1.6307352510078772)">
        <path d="M1.63 0 C1.96 -0.02, 2.41 0.16, 2.68 0.38 C2.95 0.61, 3.18 1, 3.24 1.35 C3.3 1.69, 3.22 2.14, 3.04 2.45 C2.87 2.75, 2.52 3.04, 2.19 3.16 C1.86 3.28, 1.4 3.28, 1.07 3.16 C0.74 3.04, 0.39 2.75, 0.22 2.45 C0.04 2.14, -0.04 1.69, 0.02 1.35 C0.09 1, 0.31 0.61, 0.58 0.38 C0.85 0.16, 1.46 0.06, 1.63 0 C1.81 -0.06, 1.63 0.01, 1.63 0.03 M1.63 0 C1.96 -0.02, 2.41 0.16, 2.68 0.38 C2.95 0.61, 3.18 1, 3.24 1.35 C3.3 1.69, 3.22 2.14, 3.04 2.45 C2.87 2.75, 2.52 3.04, 2.19 3.16 C1.86 3.28, 1.4 3.28, 1.07 3.16 C0.74 3.04, 0.39 2.75, 0.22 2.45 C0.04 2.14, -0.04 1.69, 0.02 1.35 C0.09 1, 0.31 0.61, 0.58 0.38 C0.85 0.16, 1.46 0.06, 1.63 0 C1.81 -0.06, 1.63 0.01, 1.63 0.03"
              stroke="none" stroke-width="0" fill="#000"></path>
        <path d="M1.63 0 C1.96 -0.02, 2.41 0.16, 2.68 0.38 C2.95 0.61, 3.18 1, 3.24 1.35 C3.3 1.69, 3.22 2.14, 3.04 2.45 C2.87 2.75, 2.52 3.04, 2.19 3.16 C1.86 3.28, 1.4 3.28, 1.07 3.16 C0.74 3.04, 0.39 2.75, 0.22 2.45 C0.04 2.14, -0.04 1.69, 0.02 1.35 C0.09 1, 0.31 0.61, 0.58 0.38 C0.85 0.16, 1.46 0.06, 1.63 0 C1.81 -0.06, 1.63 0.01, 1.63 0.03 M1.63 0 C1.96 -0.02, 2.41 0.16, 2.68 0.38 C2.95 0.61, 3.18 1, 3.24 1.35 C3.3 1.69, 3.22 2.14, 3.04 2.45 C2.87 2.75, 2.52 3.04, 2.19 3.16 C1.86 3.28, 1.4 3.28, 1.07 3.16 C0.74 3.04, 0.39 2.75, 0.22 2.45 C0.04 2.14, -0.04 1.69, 0.02 1.35 C0.09 1, 0.31 0.61, 0.58 0.38 C0.85 0.16, 1.46 0.06, 1.63 0 C1.81 -0.06, 1.63 0.01, 1.63 0.03"
              stroke="#000000" stroke-width="2" fill="none"></path>
    </g>
    <g stroke-linecap="round">
        <g transform="translate(297.102057775935 134.7346395204188) rotate(0 17.756894955419284 4.980627842189506)">
            <path d="M0 0 C1.15 1.51, 3.56 7.13, 6.89 9.06 C10.21 10.99, 16.01 12.26, 19.93 11.6 C23.86 10.93, 27.84 7.31, 30.44 5.07 C33.04 2.84, 34.67 -0.66, 35.51 -1.81 M0 0 C1.15 1.51, 3.56 7.13, 6.89 9.06 C10.21 10.99, 16.01 12.26, 19.93 11.6 C23.86 10.93, 27.84 7.31, 30.44 5.07 C33.04 2.84, 34.67 -0.66, 35.51 -1.81"
                  stroke="#000000" stroke-width="2" fill="none"></path>
        </g>
    </g>
    <g stroke-linecap="round"
       transform="translate(223.10079194527907 256.9351836165554) rotate(0 85.27777777777783 34.1111111111112)">
        <path d="M-1.58 1.83 L170.53 0.18 L172.53 66.47 L0.92 66.51" stroke="none" stroke-width="0" fill="#fff"></path>
        <path d="M-0.15 0.84 C47.63 -0.23, 98.87 1.36, 169.11 -1.54 M-0.86 0.15 C62.44 -1.42, 124.07 -0.82, 171.4 0.42 M170.16 1.97 C170.53 23.62, 169.44 43.25, 170.39 67.53 M171.23 0.98 C170.23 16.71, 169.64 32.94, 170.21 68.15 M169.72 68.63 C130.53 66.52, 89.51 66.75, 0.62 68.04 M171.47 68.73 C113 68.1, 53.77 67.9, 0.11 68.29 M-0.55 70.18 C0.82 54.11, -1.26 39.51, 1.58 1.41 M-0.94 68.06 C-0.12 45.32, -0.67 22.74, -0.9 -0.42"
              stroke="#000000" stroke-width="1" fill="none"></path>
    </g>
    <g transform="translate(275.2149894761401 267.3580231227263) rotate(0 35.058641975308774 23.688271604938336)">
        <text x="35.05864197530867" y="33.37654320987659" font-family="Virgil, Segoe UI Emoji"
              font-size="37.90123456790126px" fill="#000000" text-anchor="middle" style="white-space: pre;"
              direction="ltr">Call
        </text>
    </g>
    <g stroke-linecap="round"
       transform="translate(428.6563475008347 77.15740583877755) rotate(0 88.88888888888869 140)">
        <path d="M0.58 -2.09 C52.6 1.95, 108.7 0.11, 174.44 0.64 M0.13 1.79 C38.61 3.85, 76.24 1.24, 176.87 -1.55 M175.29 0.73 C174.72 77.31, 172.07 154.82, 176.65 279.7 M177.54 -0.71 C178.3 68.95, 178.97 138.92, 177.65 278.52 M179.33 278.95 C111.07 280.46, 51 278.15, 0.51 277.04 M178.8 279.58 C137.54 280.47, 99.21 281.57, 1.21 279.74 M2.1 280.64 C-3.7 224.54, -0.77 162.68, 0.06 -1.99 M-0.29 280.87 C-2.8 176.19, -3.51 72.7, 0.57 -1.04"
              stroke="#000000" stroke-width="2" fill="none"></path>
    </g>
</svg>